<svg width="154" height="32" viewBox="0 0 154 32" fill="none" xmlns="http://www.w3.org/2000/svg">
<path d="M20.1908 2.22895L22.4569 0.5L24.8569 3.566L22.5908 5.29494L20.1908 2.22895ZM17.9189 8.87386L21.3034 6.26315L18.9092 3.22021L13.9809 6.97778V25.0107L18.1694 28.5032L20.6918 25.5409L17.9189 23.2068V8.87386ZM2.26608 26.6993L0 28.434L2.40006 31.5L4.66031 29.7711L2.26608 26.6993ZM6.92638 23.1204L3.55349 25.7138L5.94772 28.7798L10.8527 25.0222V6.98931L6.67007 3.49684L4.14185 6.4591L6.93803 8.79318L6.92638 23.1204Z" fill="white"/>
<path d="M49.3908 13.5849C49.9655 13.1357 50.4271 12.5608 50.7396 11.9055C51.052 11.2501 51.2067 10.5321 51.1916 9.80764C51.1959 9.17234 51.07 8.54277 50.8216 7.95692C50.5731 7.37108 50.2072 6.84113 49.746 6.39907C49.2848 5.957 48.7378 5.61199 48.1381 5.38487C47.5383 5.15775 46.8983 5.05323 46.2566 5.07762H37.8569V23.2817H46.8265C49.8809 23.2817 52.0976 21.1563 52.0976 18.2078C52.1217 17.2651 51.8816 16.3343 51.4039 15.5183C50.9261 14.7024 50.2294 14.0332 49.3908 13.5849ZM41.4128 8.37567H45.493C45.7544 8.37098 46.0141 8.41884 46.2562 8.51634C46.4984 8.61385 46.7181 8.75898 46.9019 8.94294C47.0857 9.1269 47.2298 9.34585 47.3256 9.58655C47.4214 9.82724 47.4668 10.0847 47.459 10.3432C47.4635 10.6012 47.416 10.8575 47.3192 11.0971C47.2223 11.3367 47.0782 11.5547 46.8951 11.7385C46.712 11.9223 46.4937 12.068 46.2529 12.1673C46.0122 12.2665 45.7538 12.3172 45.493 12.3164H41.4128V8.37567ZM46.1141 19.9837H41.4128V15.4735H46.1141C46.7187 15.4735 47.2985 15.7111 47.7259 16.134C48.1534 16.5569 48.3936 17.1305 48.3936 17.7286C48.3936 18.3267 48.1534 18.9003 47.7259 19.3232C47.2985 19.7461 46.7187 19.9837 46.1141 19.9837Z" fill="white"/>
<path d="M58.0189 11.0986V9.68353H54.5542V23.2816H58.0189V16.663C58.0189 14.3572 59.4492 12.9816 61.8426 12.9816H62.6176V9.47493H61.8426C61.126 9.46623 60.4155 9.60622 59.7569 9.88588C59.0983 10.1655 58.5062 10.5787 58.0189 11.0986Z" fill="white"/>
<path d="M68.3607 9.68353H64.896V23.2873H68.3607V9.68353Z" fill="white"/>
<path d="M66.6238 3.85396C66.3437 3.8478 66.0652 3.89784 65.8052 4.00105C65.5452 4.10427 65.309 4.25852 65.1109 4.45451C64.9128 4.65049 64.7569 4.88415 64.6526 5.14138C64.5483 5.39861 64.4977 5.67408 64.5039 5.95118C64.5005 6.37074 64.6234 6.7818 64.8569 7.13205C65.0904 7.4823 65.424 7.75588 65.8152 7.91799C66.2063 8.0801 66.6374 8.12339 67.0535 8.04235C67.4696 7.96132 67.852 7.75962 68.1519 7.46294C68.4518 7.16626 68.6556 6.78801 68.7375 6.37634C68.8194 5.96467 68.7757 5.5382 68.6118 5.15121C68.448 4.76422 68.1714 4.43421 67.8174 4.2032C67.4634 3.97219 67.0479 3.85062 66.6238 3.85396Z" fill="white"/>
<path d="M82.2875 11.0931C81.7148 10.5363 81.0361 10.0976 80.2907 9.80245C79.5452 9.50728 78.748 9.36151 77.9452 9.37361C74.0872 9.37361 71.1753 12.4292 71.1753 16.4827C71.1753 20.5362 74.0872 23.5919 77.9452 23.5919C78.7478 23.6027 79.5447 23.4564 80.2899 23.1613C81.0352 22.8662 81.7141 22.4281 82.2875 21.8724V23.2818H85.7522V4.31097H82.2875V11.0931ZM78.515 20.2543C78.0114 20.2636 77.511 20.1719 77.0441 19.9848C76.5772 19.7977 76.1535 19.5191 75.7983 19.1656C75.4432 18.8122 75.164 18.3912 74.9777 17.9282C74.7914 17.4652 74.7017 16.9697 74.7141 16.4715C74.6943 15.9673 74.7776 15.4643 74.959 14.9927C75.1404 14.5212 75.4161 14.0907 75.7697 13.727C76.1233 13.3634 76.5474 13.0741 77.0167 12.8765C77.486 12.6789 77.9908 12.577 78.5008 12.577C79.0108 12.577 79.5156 12.6789 79.9848 12.8765C80.4541 13.0741 80.8783 13.3634 81.2318 13.727C81.5854 14.0907 81.8612 14.5212 82.0425 14.9927C82.2239 15.4643 82.3072 15.9673 82.2875 16.4715C82.3022 16.9679 82.215 17.4621 82.0313 17.9243C81.8476 18.3865 81.5711 18.807 81.2185 19.1606C80.8659 19.5141 80.4446 19.7933 79.98 19.9813C79.5153 20.1693 79.017 20.2622 78.515 20.2543Z" fill="white"/>
<path d="M110.874 9.37344C109.929 9.37179 108.992 9.54187 108.11 9.87519C107.645 8.88579 106.904 8.04795 105.975 7.45973C105.046 6.8715 103.967 6.55723 102.864 6.55368C101.761 6.55013 100.68 6.85746 99.7466 7.43969C98.8137 8.02192 98.0677 8.85498 97.596 9.84136C97.4535 9.78499 97.3054 9.73425 97.1572 9.68915C96.4684 9.4804 95.752 9.374 95.0316 9.37344C91.3788 9.37344 88.6207 11.9442 88.6207 15.355C88.6099 16.8608 89.19 18.3119 90.2391 19.4029C89.7482 19.7804 89.3516 20.2645 89.0799 20.8178C88.8082 21.371 88.6686 21.9787 88.672 22.5938C88.672 24.7136 90.3816 26.1963 92.889 26.1963H97.4079C98.5875 26.1963 99.3568 26.76 99.4252 27.6508V27.9891L103.032 27.0194L102.987 26.7657C102.577 24.3358 100.65 22.8193 97.9493 22.8193H93.4303C92.661 22.8193 92.1652 22.4359 92.1652 21.8496C92.1668 21.67 92.2084 21.493 92.2873 21.3312C92.3661 21.1694 92.4801 21.0268 92.6211 20.9138C93.3957 21.182 94.211 21.3173 95.0316 21.314C98.6844 21.314 101.443 18.7376 101.443 15.3268C101.441 14.182 101.101 13.0627 100.462 12.1077C100.509 11.5316 100.767 10.9923 101.188 10.5915C101.609 10.1906 102.164 9.95598 102.748 9.93171C103.331 9.90745 103.904 10.0953 104.357 10.4597C104.811 10.8242 105.114 11.3402 105.209 11.9104C104.171 13.1874 103.615 14.782 103.636 16.4205C103.636 20.5022 106.896 23.5804 111.21 23.5804C112.394 23.6048 113.568 23.3639 114.645 22.8757C115.722 22.3876 116.673 21.6648 117.427 20.7616L117.604 20.553L115.199 18.5178L115.016 18.7545C114.561 19.2926 113.991 19.7235 113.346 20.0161C112.701 20.3086 111.999 20.4554 111.29 20.4458C110.457 20.4927 109.63 20.2714 108.935 19.8151C108.24 19.3588 107.712 18.692 107.432 17.9145H117.968L118.008 17.6721C118.059 17.2851 118.085 16.8953 118.088 16.5051C118.109 15.5624 117.937 14.6252 117.582 13.7502C117.226 12.8752 116.696 12.0804 116.021 11.4139C115.347 10.7474 114.543 10.223 113.659 9.87227C112.774 9.52157 111.827 9.35188 110.874 9.37344ZM95.0316 18.0667C94.6629 18.0804 94.2951 18.0204 93.9503 17.8903C93.6055 17.7602 93.2907 17.5627 93.0248 17.3096C92.7589 17.0565 92.5472 16.753 92.4025 16.4171C92.2577 16.0813 92.1829 15.7201 92.1823 15.355C92.1608 14.7934 92.3093 14.2383 92.609 13.7609C92.9087 13.2834 93.3458 12.9055 93.8641 12.6756C94.3825 12.4458 94.9585 12.3744 95.5181 12.4708C96.0778 12.5672 96.5955 12.8268 97.0049 13.2165C97.4143 13.6061 97.6966 14.1079 97.8156 14.6574C97.9346 15.2069 97.8849 15.7791 97.6728 16.3004C97.4607 16.8218 97.0959 17.2685 96.6253 17.5832C96.1547 17.898 95.5997 18.0663 95.0316 18.0667ZM107.409 14.9998C107.647 14.2786 108.109 13.6502 108.73 13.2047C109.351 12.7592 110.098 12.5192 110.865 12.5192C111.632 12.5192 112.379 12.7592 113 13.2047C113.621 13.6502 114.083 14.2786 114.321 14.9998H107.409Z" fill="white"/>
<path d="M132.196 16.1497C132.196 17.1964 131.776 18.2002 131.028 18.9403C130.28 19.6803 129.265 20.0961 128.207 20.0961C127.149 20.0961 126.135 19.6803 125.387 18.9403C124.639 18.2002 124.218 17.1964 124.218 16.1497V5.07733H120.623V16.2005C120.677 18.1617 121.502 20.0245 122.924 21.3927C124.345 22.7609 126.25 23.5264 128.233 23.5264C130.216 23.5264 132.121 22.7609 133.542 21.3927C134.964 20.0245 135.789 18.1617 135.843 16.2005V5.07733H132.202L132.196 16.1497Z" fill="white"/>
<path d="M147.081 9.37307C146.273 9.35987 145.471 9.50669 144.721 9.8049C143.972 10.1031 143.29 10.5467 142.716 11.1095V9.68314H139.251V28.1466H142.716V21.8549C143.291 22.4167 143.973 22.8596 144.722 23.1577C145.472 23.4558 146.274 23.6032 147.081 23.5913C150.945 23.5913 153.857 20.5357 153.857 16.4822C153.857 12.4287 150.945 9.37307 147.081 9.37307ZM146.511 20.2651C146.008 20.2744 145.507 20.1827 145.041 19.9956C144.574 19.8085 144.15 19.5298 143.795 19.1763C143.44 18.8229 143.16 18.402 142.974 17.939C142.788 17.4759 142.698 16.9804 142.71 16.4822C142.691 15.978 142.774 15.475 142.955 15.0035C143.137 14.5319 143.413 14.1014 143.766 13.7377C144.12 13.3741 144.544 13.0848 145.013 12.8872C145.482 12.6896 145.987 12.5878 146.497 12.5878C147.007 12.5878 147.512 12.6896 147.981 12.8872C148.451 13.0848 148.875 13.3741 149.228 13.7377C149.582 14.1014 149.858 14.5319 150.039 15.0035C150.22 15.475 150.304 15.978 150.284 16.4822C150.297 16.9772 150.209 17.4697 150.025 17.9302C149.841 18.3907 149.564 18.8096 149.213 19.1619C148.861 19.5141 148.441 19.7924 147.978 19.9801C147.514 20.1677 147.018 20.2608 146.517 20.2538L146.511 20.2651Z" fill="white"/>
</svg>
