<?xml version="1.0" encoding="UTF-8"?>
<!-- Generator: Adobe Illustrator 26.0.0, SVG Export Plug-In . SVG Version: 6.00 Build 0)  -->
<svg version="1.1" id="Layer_1" xmlns="http://www.w3.org/2000/svg" xmlns:xlink="http://www.w3.org/1999/xlink" x="0px" y="0px" viewBox="0 0 401.3 81.3" style="enable-background:new 0 0 401.3 81.3;" xml:space="preserve">
<style type="text/css">
	.st0{fill:none;}
	.st1{fill:#7C8081;}
</style>
<g>
	<g>
		<path class="st0" d="M215.9,33.7c-6.3,0-11.4,4.8-12.5,11.7h24.8C227.3,38.3,222.6,33.7,215.9,33.7z"/>
		<path class="st0" d="M104.8,34c-7.6,0-13.3,6.1-13.3,14.2s5.8,14.5,13.3,14.5s13.1-6.2,13.1-14.5C118.1,40.1,112.3,34,104.8,34z"/>
		<path class="st0" d="M152.1,34c-7.6,0-13.3,6.1-13.3,14.2s5.8,14.5,13.3,14.5s13.1-6.2,13.1-14.5C165.2,40.1,159.6,34,152.1,34z"/>
		<path class="st0" d="M368.2,33.7c-6.3,0-11.4,4.8-12.5,11.7h24.8C379.5,38.3,374.8,33.7,368.2,33.7z"/>
		<path class="st1" d="M41.1,21.7c5.7,0,9.2,2,11.6,3.3c1.3,0.7,2.2,1.2,3.1,1.2c1.6,0,2.8-1.1,2.8-2.6c0-3.4-8.4-7.9-17.3-7.9    c-15.1,0-26.6,11.4-26.6,26.4s11.4,26.3,26.6,26.3c8.9,0,17.3-4.4,17.3-7.9c0-1.5-1.2-2.6-2.8-2.6c-0.9,0-1.8,0.5-3.1,1.2    c-2.4,1.3-5.9,3.2-11.6,3.2c-11.5,0-20.1-8.7-20.1-20.3S29.6,21.7,41.1,21.7z"/>
		<path class="st1" d="M79.7,28.2c-3.5,0-6.5,1.5-8.7,4.1V32c0-1.7-1.3-3-3.1-3c-1.7,0-3,1.3-3,3v32.6c0,1.7,1.3,3,3,3    c1.8,0,3.1-1.3,3.1-3V44.4C71,38,73.8,34,78.4,34c1.3,0,2.2,0.2,3,0.4c0.6,0.1,1.1,0.2,1.6,0.2c1.7,0,2.9-1.2,2.9-2.8    C85.8,29.3,82.7,28.2,79.7,28.2z"/>
		<path class="st1" d="M121.2,29c-1.8,0-3.1,1.3-3.1,3v2.6c-3.3-4.2-8.1-6.5-13.7-6.5c-10.7,0-18.8,8.6-18.8,20.1    c0,11.3,8.3,20.2,18.8,20.2c5.4,0,10.3-2.4,13.7-6.6v2.8c0,1.7,1.3,3,3.1,3c1.7,0,3-1.3,3-3V32C124.2,30.2,122.8,29,121.2,29z     M118.1,48.2c0,8.2-5.7,14.5-13.1,14.5c-7.5,0-13.3-6.4-13.3-14.5S97.4,34,104.9,34C112.3,34,118.1,40.1,118.1,48.2z"/>
		<path class="st1" d="M168.3,12.8c-1.8,0-3.1,1.3-3.1,3v18.8c-3.3-4.2-8.1-6.5-13.7-6.5c-10.7,0-18.8,8.6-18.8,20.1    c0,11.3,8.3,20.2,18.8,20.2c5.4,0,10.3-2.4,13.7-6.6v2.8c0,1.7,1.4,3.1,3.1,3.1s3-1.4,3-3.1V15.8    C171.3,14.1,169.9,12.8,168.3,12.8z M165.2,48.2c0,8.2-5.7,14.5-13.1,14.5c-7.5,0-13.3-6.4-13.3-14.5S144.5,34,152.1,34    C159.6,34,165.2,40.1,165.2,48.2z"/>
		<path class="st1" d="M185.8,12.8c-1.7,0-3,1.3-3,3v48.8c0,1.7,1.3,3,3,3c1.8,0,3.1-1.3,3.1-3V15.8    C188.8,14.1,187.4,12.8,185.8,12.8z"/>
		<path class="st1" d="M216.1,28.2c-10.7,0-18.8,8.6-18.8,20.1s8.5,20.2,19.8,20.2c8,0,14.4-3.8,14.4-7c0-1.4-1-2.5-2.5-2.5    c-0.8,0-1.6,0.5-2.5,1.1c-1.7,1.1-4.4,2.8-9.2,2.8c-7.2,0-12.8-5.2-13.7-12.5h27.2c2.3,0,3.8-1.4,3.8-3.8    C234.4,37.5,227.6,28.2,216.1,28.2z M228.3,45.4h-24.8c1.1-6.9,6.2-11.7,12.5-11.7C222.6,33.7,227.3,38.3,228.3,45.4z"/>
		<path class="st1" d="M292.2,28.9c-1.6,0-2.7,0.9-3,2.5l-9.1,28l-9.4-27.2c-0.6-2.2-1.9-3.2-4.1-3.2c-2.1,0-3.4,1-4,3.1l-9.4,27.4    l-9.1-27.9c-0.4-1.7-1.5-2.7-3.1-2.7c-1,0-1.9,0.4-2.5,1.2s-0.7,1.9-0.3,3.2l10.7,31.6c0.6,1.9,2,2.9,4,2.9c2.8,0,3.8-1.6,4.2-2.9    l9.2-27.2l9.2,27c0.4,2,1.9,3.1,4.1,3.1s3.7-1,4.4-3.1l10.7-31.6l0,0c0.4-1.2,0.3-2.3-0.3-3C294,29.3,293.2,28.9,292.2,28.9z"/>
		<path class="st1" d="M305.2,15.1c-2.2,0-3.9,1.7-3.9,3.9s1.7,3.9,3.9,3.9c2.1,0,3.9-1.7,3.9-3.9S307.2,15.1,305.2,15.1z"/>
		<path class="st1" d="M305.2,29c-1.7,0-3,1.3-3,3v32.6c0,1.7,1.3,3,3,3c1.8,0,3.1-1.3,3.1-3V32C308.2,30.2,307,29,305.2,29z"/>
		<path class="st1" d="M331.8,45c-4.8-1.5-9-2.7-9-6.4c0-3,3-5,7.4-5c3.7,0,6.1,1.3,7.8,2.2c1.1,0.6,2,1.1,3,1.1    c1.5,0,2.5-1,2.5-2.5c0-3.2-6.4-6.2-13-6.2c-8.2,0-13.7,4.3-13.7,10.6c0,7.6,6.8,9.7,12.8,11.5c5.1,1.5,9.4,2.8,9.4,6.9    c0,3.5-3,5.7-7.9,5.7c-5.4,0-8.3-2.1-10.2-3.5c-1.1-0.8-1.9-1.4-2.8-1.4c-1.6,0-2.7,1-2.7,2.5c0,3.1,6.6,7.9,15.3,7.9    c8.7,0,14.3-4.5,14.3-11.4C345,49,338,46.9,331.8,45z"/>
		<path class="st1" d="M386.6,46.5c0-9-6.9-18.3-18.4-18.3c-10.7,0-18.8,8.6-18.8,20.1s8.5,20.2,19.8,20.2c8,0,14.4-3.8,14.4-7    c0-1.4-1-2.5-2.5-2.5c-0.8,0-1.6,0.5-2.5,1.1c-1.7,1.1-4.4,2.8-9.2,2.8c-7.2,0-12.8-5.2-13.7-12.5h27.2    C385.2,50.3,386.6,48.8,386.6,46.5z M380.5,45.4h-24.8c1.1-6.9,6.2-11.7,12.5-11.7C374.8,33.7,379.5,38.3,380.5,45.4z"/>
	</g>
</g>
</svg>