<svg width="142" height="42" viewBox="0 0 142 42" fill="none" xmlns="http://www.w3.org/2000/svg">
<path d="M121.988 27.2199V19.1139C121.988 17.8683 122.263 16.7783 122.813 15.8441C123.38 14.9098 124.159 14.1862 125.148 13.6733C126.137 13.1421 127.264 12.8765 128.528 12.8765C129.81 12.8765 130.937 13.1421 131.908 13.6733C132.897 14.1862 133.666 14.9098 134.216 15.8441C134.784 16.7783 135.068 17.8683 135.068 19.1139V27.2199H132.54V19.1414C132.54 18.2987 132.347 17.5752 131.963 16.9707C131.596 16.3478 131.102 15.8715 130.479 15.5418C129.874 15.2121 129.224 15.0472 128.528 15.0472C127.832 15.0472 127.172 15.2121 126.549 15.5418C125.945 15.8715 125.451 16.3478 125.066 16.9707C124.699 17.5752 124.516 18.2987 124.516 19.1414V27.2199H121.988Z" fill="black"/>
<path d="M113.435 27.2199C111.896 27.2199 110.532 26.936 109.341 26.3681C108.15 25.7819 107.216 24.9667 106.538 23.9226C105.878 22.8601 105.549 21.6236 105.549 20.2131C105.549 18.8208 105.833 17.5752 106.4 16.4761C106.968 15.3586 107.756 14.4793 108.764 13.8382C109.771 13.197 110.944 12.8765 112.281 12.8765C113.728 12.8765 114.928 13.1879 115.88 13.8107C116.851 14.4335 117.575 15.2762 118.051 16.3387C118.528 17.3828 118.766 18.5552 118.766 19.8559C118.766 20.0573 118.756 20.268 118.738 20.4878C118.738 20.7076 118.72 20.9 118.683 21.0649H108.241C108.333 21.9259 108.617 22.6586 109.093 23.2631C109.57 23.8493 110.174 24.2981 110.907 24.6095C111.658 24.9026 112.482 25.0492 113.38 25.0492H117.035V27.2199H113.435ZM108.214 19.2788H116.21C116.21 18.9307 116.174 18.5644 116.1 18.1797C116.027 17.7767 115.899 17.392 115.716 17.0256C115.532 16.6409 115.285 16.302 114.974 16.0089C114.681 15.6975 114.305 15.4502 113.847 15.267C113.408 15.0838 112.885 14.9923 112.281 14.9923C111.64 14.9923 111.072 15.1205 110.577 15.3769C110.101 15.6151 109.689 15.9448 109.341 16.3661C108.993 16.7692 108.727 17.2271 108.544 17.7401C108.361 18.253 108.251 18.7659 108.214 19.2788Z" fill="black"/>
<path d="M99.7678 27.2205V13.2067H102.323V27.2205H99.7678ZM101.059 10.981C100.601 10.981 100.198 10.8161 99.8502 10.4864C99.5206 10.1383 99.3555 9.73532 99.3555 9.27736C99.3555 8.8194 99.5206 8.42556 99.8502 8.09582C100.198 7.74777 100.601 7.57373 101.059 7.57373C101.517 7.57373 101.911 7.74777 102.241 8.09582C102.589 8.42556 102.763 8.8194 102.763 9.27736C102.763 9.73532 102.589 10.1383 102.241 10.4864C101.911 10.8161 101.517 10.981 101.059 10.981Z" fill="black"/>
<path d="M89.3107 12.8765C90.373 12.8765 91.3438 13.0505 92.2231 13.3985C93.1025 13.7283 93.863 14.2229 94.5038 14.8823C95.1451 15.5418 95.6398 16.3387 95.9876 17.2729C96.354 18.1888 96.5374 19.2239 96.5374 20.3779C96.5374 21.8251 96.2351 23.0891 95.6307 24.1699C95.0445 25.2507 94.2384 26.0842 93.2126 26.6704C92.1867 27.2566 91.0234 27.5497 89.7226 27.5497C89.0085 27.5497 88.3213 27.4306 87.6618 27.1924C87.0209 26.9543 86.4438 26.6246 85.9308 26.2032C85.4361 25.7636 85.0333 25.269 84.722 24.7195H84.6669V33.2651H82.1387V20.2955C82.1387 18.7201 82.4504 17.3828 83.0731 16.2837C83.7143 15.1846 84.5754 14.3419 85.656 13.7557C86.7369 13.1695 87.9549 12.8765 89.3107 12.8765ZM89.3107 15.0472C88.4678 15.0472 87.6895 15.2579 86.9749 15.6792C86.279 16.1005 85.7201 16.6959 85.2987 17.4653C84.8959 18.2347 84.6942 19.1414 84.6942 20.1856C84.6942 21.2481 84.8959 22.1731 85.2987 22.9609C85.7201 23.7302 86.279 24.3256 86.9749 24.7469C87.6895 25.1682 88.4769 25.3789 89.338 25.3789C90.2173 25.3789 91.0052 25.1591 91.7011 24.7195C92.3974 24.2798 92.9468 23.6753 93.35 22.9059C93.7711 22.1365 93.9818 21.2389 93.9818 20.2131C93.9818 19.1506 93.7711 18.2347 93.35 17.4653C92.9286 16.6959 92.3606 16.1005 91.646 15.6792C90.9501 15.2579 90.1714 15.0472 89.3107 15.0472Z" fill="black"/>
<path d="M70.282 27.5497C68.9266 27.5497 67.7542 27.2291 66.7647 26.5879C65.7757 25.9285 65.0156 25.04 64.484 23.9226C63.9529 22.8051 63.6875 21.5686 63.6875 20.2131C63.6875 18.8392 63.9806 17.6027 64.5668 16.5035C65.153 15.3861 65.9955 14.5068 67.0947 13.8657C68.1938 13.2062 69.5128 12.8765 71.0516 12.8765C72.5354 12.8765 73.8084 13.197 74.8707 13.8382C75.9334 14.4793 76.7486 15.3495 77.3166 16.4486C77.9028 17.5477 78.1959 18.775 78.1959 20.1306V27.2199H75.6403V24.3622H75.5853C75.3104 24.8935 74.9349 25.4064 74.4588 25.901C74.0009 26.3773 73.4238 26.7711 72.7275 27.0825C72.0315 27.3939 71.2164 27.5497 70.282 27.5497ZM70.9415 25.3789C71.8577 25.3789 72.6633 25.1591 73.3596 24.7195C74.0742 24.2615 74.6236 23.6386 75.0082 22.8509C75.4114 22.0449 75.6126 21.1473 75.6126 20.1581C75.6126 19.1872 75.4205 18.3171 75.0359 17.5477C74.6695 16.7783 74.1379 16.1738 73.442 15.7341C72.7461 15.2762 71.9305 15.0472 70.9966 15.0472C70.0071 15.0472 69.1555 15.2762 68.441 15.7341C67.7451 16.1921 67.2044 16.815 66.8198 17.6027C66.4534 18.372 66.2704 19.2513 66.2704 20.2405C66.2704 21.1931 66.4534 22.0632 66.8198 22.8509C67.1862 23.6203 67.7173 24.234 68.4136 24.692C69.1096 25.1499 69.9525 25.3789 70.9415 25.3789Z" fill="black"/>
<path d="M49.7736 27.2203V25.0495H56.4783C56.9179 25.0495 57.2934 24.9579 57.6047 24.7748C57.9347 24.5732 58.1818 24.3168 58.3466 24.0054C58.5118 23.6939 58.5942 23.3642 58.5942 23.0162C58.5942 22.6864 58.5209 22.3842 58.3743 22.1094C58.2278 21.8163 57.9988 21.5873 57.6875 21.4225C57.3944 21.2393 57.0371 21.1476 56.6157 21.1476H53.7856C52.8877 21.1476 52.1003 21.0011 51.4222 20.708C50.7631 20.3966 50.2406 19.9478 49.856 19.3616C49.4896 18.7754 49.3066 18.061 49.3066 17.2183C49.3066 16.5039 49.4805 15.8444 49.8287 15.2399C50.1768 14.6354 50.6621 14.15 51.2851 13.7836C51.9078 13.3989 52.6223 13.2065 53.4284 13.2065H59.8854V15.3773H53.6755C53.1075 15.3773 52.6588 15.5513 52.3292 15.8994C51.9993 16.2474 51.8345 16.6596 51.8345 17.1359C51.8345 17.5938 51.9993 17.9969 52.3292 18.3449C52.6774 18.6747 53.1626 18.8395 53.7856 18.8395H56.4783C57.4859 18.8395 58.3284 19.0044 59.0061 19.3341C59.7024 19.6455 60.2245 20.1035 60.5726 20.708C60.939 21.3125 61.122 22.0544 61.122 22.9337C61.122 23.6848 60.939 24.39 60.5726 25.0495C60.2063 25.6907 59.6933 26.2128 59.0338 26.6158C58.3926 27.0188 57.6416 27.2203 56.7805 27.2203H49.7736Z" fill="black"/>
<path d="M39.3598 27.5497C37.9311 27.5497 36.6672 27.2291 35.568 26.5879C34.4689 25.9285 33.5987 25.0492 32.9578 23.95C32.3165 22.8326 31.9961 21.587 31.9961 20.2131C31.9961 18.8392 32.3165 17.6027 32.9578 16.5035C33.5987 15.3861 34.4689 14.5068 35.568 13.8657C36.6672 13.2062 37.9311 12.8765 39.3598 12.8765C40.7889 12.8765 42.0528 13.2062 43.152 13.8657C44.2694 14.5068 45.1396 15.3769 45.7622 16.4761C46.4035 17.5752 46.7239 18.8208 46.7239 20.2131C46.7239 21.587 46.4035 22.8326 45.7622 23.95C45.1396 25.0492 44.2694 25.9285 43.152 26.5879C42.0528 27.2291 40.7889 27.5497 39.3598 27.5497ZM39.3598 25.3789C40.331 25.3789 41.1735 25.1499 41.8881 24.692C42.6022 24.234 43.1611 23.6203 43.5643 22.8509C43.9671 22.0632 44.1687 21.184 44.1687 20.2131C44.1687 19.2422 43.9671 18.372 43.5643 17.6027C43.1611 16.815 42.6022 16.1921 41.8881 15.7341C41.1735 15.2762 40.331 15.0472 39.3598 15.0472C38.4076 15.0472 37.5647 15.2762 36.832 15.7341C36.1174 16.1921 35.5589 16.815 35.1557 17.6027C34.7529 18.372 34.5513 19.2422 34.5513 20.2131C34.5513 21.184 34.7529 22.0632 35.1557 22.8509C35.5589 23.6203 36.1174 24.234 36.832 24.692C37.5647 25.1499 38.4076 25.3789 39.3598 25.3789Z" fill="black"/>
<path d="M24.2103 27.2199C22.6715 27.2199 21.3069 26.936 20.1162 26.3681C18.9255 25.7819 17.9912 24.9667 17.3134 23.9226C16.654 22.8601 16.3242 21.6236 16.3242 20.2131C16.3242 18.8208 16.6082 17.5752 17.1761 16.4761C17.7439 15.3586 18.5316 14.4793 19.5391 13.8382C20.5467 13.197 21.7192 12.8765 23.0565 12.8765C24.5034 12.8765 25.7035 13.1879 26.6557 13.8107C27.6269 14.4335 28.3502 15.2762 28.8267 16.3387C29.3028 17.3828 29.5412 18.5552 29.5412 19.8559C29.5412 20.0573 29.5321 20.268 29.5135 20.4878C29.5135 20.7076 29.4953 20.9 29.4589 21.0649H19.017C19.1087 21.9259 19.3926 22.6586 19.8689 23.2631C20.3452 23.8493 20.9497 24.2981 21.6824 24.6095C22.4334 24.9026 23.2577 25.0492 24.1556 25.0492H27.8099V27.2199H24.2103ZM18.9896 19.2788H26.9857C26.9857 18.9307 26.9488 18.5644 26.8756 18.1797C26.8023 17.7767 26.6743 17.392 26.491 17.0256C26.308 16.6409 26.0604 16.302 25.7491 16.0089C25.456 15.6975 25.0805 15.4502 24.6226 15.267C24.1829 15.0838 23.6609 14.9923 23.0565 14.9923C22.4152 14.9923 21.8472 15.1205 21.3527 15.3769C20.8764 15.6151 20.4642 15.9448 20.1162 16.3661C19.7681 16.7692 19.5025 17.2271 19.3193 17.7401C19.1361 18.253 19.0262 18.7659 18.9896 19.2788Z" fill="black"/>
<path d="M0 27.2199V19.1139C0 17.8683 0.274768 16.7783 0.824344 15.8441C1.39222 14.9098 2.17077 14.1862 3.15997 13.6733C4.14917 13.1421 5.27577 12.8765 6.53973 12.8765C7.82204 12.8765 8.94864 13.1421 9.91953 13.6733C10.9087 14.1862 11.6781 14.9098 12.2277 15.8441C12.7955 16.7783 13.0795 17.8683 13.0795 19.1139V27.2199H10.5515V19.1414C10.5515 18.2987 10.3592 17.5752 9.97447 16.9707C9.60813 16.3478 9.11353 15.8715 8.49068 15.5418C7.88616 15.2121 7.23586 15.0472 6.53973 15.0472C5.84364 15.0472 5.18415 15.2121 4.56134 15.5418C3.95683 15.8715 3.46223 16.3478 3.07754 16.9707C2.71116 17.5752 2.52797 18.2987 2.52797 19.1414V27.2199H0Z" fill="black"/>
</svg>
