<svg xmlns="http://www.w3.org/2000/svg" width="259.901" height="16.523" xmlns:v="https://vecta.io/nano"><path d="M30.91.655l-6.719 14.4c-.137.293-.116.636.056.911s.471.444.794.449h5.567c.366-.006.696-.221.85-.552l6.733-14.409c.137-.293.116-.636-.056-.911s-.47-.443-.794-.449h-5.564c-.374.001-.713.221-.867.561zM184.166 3.72l-1.088 2.329c-.07.147-.06.319.026.456a.48.48 0 0 0 .399.224h6.158c.162.002.313.086.399.224s.096.31.026.456l-.85 1.832c-.154.331-.484.546-.85.552h-6.442c-.366.006-.696.221-.85.553l-1.088 2.329a.48.48 0 0 0 .425.68h6.158a.48.48 0 0 1 .425.68l-.85 1.832c-.154.331-.484.546-.85.552h-11.71a1.91 1.91 0 0 1-1.734-2.724l5.695-12.21c.393-.843 1.238-1.382 2.168-1.383h13.047a.48.48 0 0 1 .425.68l-.85 1.832c-.154.331-.484.546-.85.552h-6.443c-.384-.013-.738.204-.9.552zM98.769.782l-.85 1.832c-.154.331-.484.546-.85.552h-2.4c-.366.006-.696.221-.85.552l-5.662 12.147c-.154.331-.484.546-.85.552h-5.55c-.324-.006-.623-.175-.794-.449a.96.96 0 0 1-.056-.911L86.134 3.85a.48.48 0 0 0-.425-.68h-2.087a.48.48 0 0 1-.425-.68l.85-1.832c.154-.331.484-.546.85-.552h13.48a.48.48 0 0 1 .4.676zm31.122.701l-5.695 12.21a1.91 1.91 0 0 0 1.734 2.724h15.389c.929-.001 1.774-.539 2.167-1.381l5.695-12.21a1.91 1.91 0 0 0-1.738-2.724h-15.384c-.929.001-1.774.539-2.167 1.381zm6.111 11.87h-3.234a.48.48 0 0 1-.425-.68l4.174-8.953c.154-.331.484-.546.85-.552h3.238a.48.48 0 0 1 .425.68l-4.148 8.955c-.159.341-.504.557-.88.552zm37.964-11.9l-6.328 13.6c-.393.842-1.238 1.38-2.167 1.381h-5.525c-.254 0-.497-.101-.676-.28s-.28-.422-.28-.676V8.109a.48.48 0 0 0-.914-.2l-3.71 7.956c-.154.331-.484.546-.85.552h-5.55c-.324-.006-.623-.175-.794-.449a.96.96 0 0 1-.056-.911l6.3-13.57c.392-.844 1.238-1.384 2.169-1.385h5.525c.254 0 .497.101.676.28s.28.422.28.676v7.348a.48.48 0 0 0 .914.2l3.712-7.952c.154-.331.484-.546.85-.552h5.55c.326-.002.63.163.807.436s.203.618.068.915zM72.457 3.72l-1.088 2.329a.48.48 0 0 0 .425.68h6.163a.48.48 0 0 1 .425.68l-.85 1.832c-.154.331-.484.546-.85.552h-6.443c-.366.006-.696.221-.85.552l-1.088 2.329a.48.48 0 0 0 .425.68h6.158c.162.002.313.086.399.224s.096.31.026.456l-.85 1.832c-.154.331-.484.546-.85.552H61.896a1.91 1.91 0 0 1-1.734-2.724l5.665-12.21A2.39 2.39 0 0 1 67.995.102h13.047a.48.48 0 0 1 .425.68l-.85 1.832c-.154.331-.484.546-.85.552h-6.443c-.372 0-.71.216-.867.553zm-10.2-2.267l-6.328 13.6c-.393.842-1.238 1.38-2.167 1.381h-5.525c-.525-.004-.948-.431-.948-.956V8.109a.48.48 0 0 0-.914-.2l-3.71 7.956c-.154.331-.484.546-.85.552h-5.563c-.324-.006-.623-.175-.794-.449a.96.96 0 0 1-.056-.911l6.311-13.57C42.105.643 42.951.103 43.881.102h5.52c.254 0 .497.101.676.28s.28.422.28.676v7.348a.48.48 0 0 0 .909.2L54.977.655c.154-.331.484-.546.85-.552h5.55c.327-.003.632.161.81.434a.96.96 0 0 1 .07.917zm-35.298 0l-6.328 13.6c-.393.842-1.238 1.38-2.167 1.381h-5.526c-.525-.004-.948-.431-.948-.956V8.109a.48.48 0 0 0-.909-.2l-3.71 7.96c-.155.331-.485.545-.85.551H.941a.96.96 0 0 1-.797-.45c-.172-.275-.192-.62-.053-.914L6.415 1.483C6.809.638 7.659.099 8.591.102h5.525c.528 0 .956.428.956.956v7.348a.48.48 0 0 0 .909.2l3.7-7.956c.154-.331.484-.546.85-.552h5.563c.324.001.626.167.801.44s.2.616.066.911zM119.772.85l-10.922 9.515a.47.47 0 0 0-.119.157l-2.55 5.448c-.154.331-.484.546-.85.552h-5.55c-.324-.006-.623-.175-.794-.449a.96.96 0 0 1-.056-.911l3.111-6.677a.48.48 0 0 0 .021-.349L99.657.85a.48.48 0 0 1 .455-.625h2.847a.72.72 0 0 1 .68.5l1.173 3.608c.024.078.086.138.164.159s.162.001.223-.053l4.917-4.32a.48.48 0 0 1 .317-.119h9.027a.48.48 0 0 1 .315.85z" fill="#2e2e2e"/><path d="M207 16.465l5.376-12.676 7.322.01-2.067 4.911 6.146-4.924h5.012l-5.992 5.012 3.465 4.554 4.395-11.047h-10.429l.835-2.3h28.23l-.649 2.3h-10.53l-2.958 8.585 7.071-7.1h6.485l-1.036 4.836 5.457-4.837h6.766l-2.8 12.674h-6.722l.7-4.541-5.142 4.541h-6.237l.82-4.589-4.925 4.589h-15.927l-3.418-4.543-1.859 4.542z" fill="#ef5713"/><circle cx="200.5" cy="8.5" r="1.5" fill="#2e2e2e"/></svg>